<?xml version="1.0"?>
<svg version="1.1" xmlns="http://www.w3.org/2000/svg" width="180px" height="60px" style="">
  <path fill="#8100fa"
    d="M14.644,38.148c0,2.128-0.644,4.06-1.82,5.432c-1.036,1.176-2.492,1.904-4.312,1.904c-1.288,0-2.576-0.476-3.388-1.316l0,6.272c0,0.56-0.252,0.728-0.728,0.728l-1.96,0c-0.448,0-0.672-0.252-0.672-0.728l0-18.256c0-0.476,0.224-0.644,0.672-0.644l1.68,0c0.476,0,0.728,0.112,0.756,0.532l0.028,0.756c0.812-0.924,2.408-1.624,3.92-1.624c1.848,0,3.136,0.7,4.06,1.708c1.204,1.316,1.764,3.276,1.764,5.236z M11.116,38.316c0-1.316-0.252-2.464-0.812-3.248c-0.532-0.756-1.316-1.148-2.296-1.148c-1.036,0-2.324,0.672-2.884,1.372l0,6.104c0.56,0.756,1.68,1.372,2.744,1.372c0.98,0,1.764-0.448,2.24-1.036c0.7-0.868,1.008-2.044,1.008-3.416z M31.234,44.42c0,0.532-0.336,0.7-0.784,0.7l-2.044,0c-0.476,0-0.756-0.168-0.756-0.728l0-3.472l-8.82,0c-0.672,0-0.784-0.364-0.784-0.868l0-1.036c0-0.504,0.056-0.784,0.364-1.4l5.292-11.144c0.224-0.504,0.42-0.728,0.98-0.728l2.016,0c0.448,0,0.588,0.196,0.588,0.448c0,0.168-0.056,0.308-0.112,0.448l-5.208,11.284l5.684,0l0-4.34c0-0.56,0.308-0.7,0.784-0.7l2.016,0c0.504,0,0.784,0.14,0.784,0.7l0,10.836z M39.788,44.42c0,0.476-0.224,0.7-0.616,0.7l-2.128,0c-0.392,0-0.644-0.196-0.644-0.672l0-18.368c0-0.476,0.196-0.616,0.56-0.672l2.016-0.28c0.056,0,0.14-0.028,0.196-0.028c0.336,0,0.616,0.168,0.616,0.616l0,18.704z M65.254,44.42c0,0.504-0.196,0.7-0.672,0.7l-1.96,0c-0.504,0-0.728-0.196-0.728-0.7l0-7.672c0-1.512-0.392-2.66-2.1-2.66c-1.064,0-2.296,0.56-3.164,1.26c0.056,0.252,0.112,4.004,0.112,4.396l0,4.676c0,0.504-0.196,0.7-0.672,0.7l-1.848,0c-0.504,0-0.728-0.196-0.728-0.7l0-7.672c0-1.484-0.308-2.66-2.016-2.66c-1.092,0-2.212,0.616-3.108,1.4l0,8.932c0,0.504-0.224,0.7-0.7,0.7l-1.96,0c-0.504,0-0.728-0.196-0.728-0.7l0-12.236c0-0.448,0.252-0.644,0.672-0.644l1.82,0c0.42,0,0.672,0.14,0.7,0.532l0.028,0.7c1.148-1.008,2.66-1.596,4.116-1.596c1.708,0,2.912,0.756,3.556,1.82c1.26-1.204,3.08-1.82,4.788-1.82c2.044,0,3.332,1.008,3.92,2.1c0.532,1.036,0.672,2.268,0.672,4.06l0,7.084z M82.656,44.42c0,0.532-0.336,0.7-0.784,0.7l-2.044,0c-0.476,0-0.756-0.168-0.756-0.728l0-3.472l-8.82,0c-0.672,0-0.784-0.364-0.784-0.868l0-1.036c0-0.504,0.056-0.784,0.364-1.4l5.292-11.144c0.224-0.504,0.42-0.728,0.98-0.728l2.016,0c0.448,0,0.588,0.196,0.588,0.448c0,0.168-0.056,0.308-0.112,0.448l-5.208,11.284l5.684,0l0-4.34c0-0.56,0.308-0.7,0.784-0.7l2.016,0c0.504,0,0.784,0.14,0.784,0.7l0,10.836z M99.89,44.42c0,0.476-0.28,0.7-0.616,0.7l-1.82,0c-0.448,0-0.644-0.224-0.672-0.56l-0.056-0.756c-0.784,0.896-2.352,1.652-3.808,1.652c-4.06,0-5.908-3.22-5.908-6.972c0-3.92,2.184-7.336,6.132-7.336c1.26,0,2.576,0.504,3.36,1.316l0-6.3c0-0.504,0.14-0.7,0.588-0.756l2.072-0.28c0.028,0,0.252-0.028,0.28-0.028c0.336,0,0.448,0.14,0.448,0.56l0,18.76z M96.502,41.312l0-6.076c-0.56-0.756-1.624-1.372-2.688-1.372c-2.268,0-3.276,2.128-3.276,4.424s0.84,4.424,3.108,4.424c1.036,0,2.296-0.7,2.856-1.4z M117.292,39.38c0,3.724-3.304,6.076-6.944,6.076c-2.016,0-3.752-0.364-5.124-1.092c-0.336-0.168-0.504-0.364-0.504-0.616c0-0.112,0.056-0.308,0.112-0.448l0.504-1.372c0.084-0.252,0.224-0.392,0.476-0.392c0.112,0,0.28,0.028,0.42,0.084c1.148,0.532,2.492,0.896,3.892,0.896c2.24,0,3.612-1.316,3.612-3.248c0-2.52-2.436-3.22-4.48-3.22l-0.504,0c-0.532,0-0.672-0.336-0.672-0.756l0-1.176c0-0.448,0.112-0.728,0.644-0.728l0.924,0c2.044,0,3.332-0.84,3.332-2.744c0-1.54-1.12-2.408-2.828-2.408c-1.12,0-2.38,0.336-3.528,0.98c-0.168,0.084-0.308,0.168-0.448,0.168c-0.196,0-0.336-0.168-0.448-0.42l-0.532-1.344c-0.056-0.112-0.084-0.224-0.084-0.336c0-0.196,0.112-0.364,0.336-0.504c1.54-0.952,3.248-1.4,5.264-1.4c2.996,0,5.824,1.68,5.824,4.956c0,2.016-1.288,3.696-2.996,4.256c1.988,0.532,3.752,2.324,3.752,4.788z M133.938,31.932c0,0.084-0.028,0.168-0.056,0.28l-4.9,12.376c-0.168,0.42-0.392,0.532-0.812,0.532l-1.456,0c-0.42,0-0.7-0.112-0.84-0.504l-4.816-12.488c-0.028-0.084-0.056-0.168-0.056-0.252c0-0.224,0.14-0.336,0.504-0.336l2.464,0c0.476,0,0.7,0.196,0.812,0.56l2.128,6.524c0.28,0.84,0.532,1.764,0.7,2.38l0.028,0c0.14-0.532,0.42-1.512,0.672-2.296l2.184-6.58c0.14-0.476,0.364-0.588,0.868-0.588l2.016,0c0.364,0,0.56,0.14,0.56,0.392z" />
  <path fill="#" d="" />
</svg>